<svg width="62" height="80" viewBox="0 0 62 80" fill="none" xmlns="http://www.w3.org/2000/svg">
<path d="M39.2355 66.6665C36.6621 66.6665 34.5687 68.7599 34.5687 71.3332C34.5687 73.9066 36.6621 76 39.2355 76C41.8088 76 43.9022 73.9066 43.9022 71.3332C43.9022 68.7599 41.8075 66.6665 39.2355 66.6665ZM39.2355 73.3333C38.1328 73.3333 37.2354 72.4359 37.2354 71.3332C37.2354 70.2306 38.1328 69.3332 39.2355 69.3332C40.3382 69.3332 41.2355 70.2306 41.2355 71.3332C41.2355 72.4359 40.3382 73.3333 39.2355 73.3333Z" fill="white"/>
<path d="M45.2356 49.3329C48.177 49.3329 50.569 46.9408 50.569 43.9994C50.569 41.0581 48.177 38.666 45.2356 38.666C42.2942 38.666 39.9022 41.0581 39.9022 43.9994C39.9022 46.9408 42.2929 49.3329 45.2356 49.3329ZM45.2356 41.3327C46.7063 41.3327 47.9023 42.5287 47.9023 43.9994C47.9023 45.4701 46.7063 46.6661 45.2356 46.6661C43.7649 46.6661 42.5689 45.4701 42.5689 43.9994C42.5689 42.5287 43.7649 41.3327 45.2356 41.3327Z" fill="white"/>
<path d="M13.235 15.9989C13.5764 15.9989 13.9177 15.8682 14.1777 15.6082L16.8444 12.9415C17.3658 12.4202 17.3658 11.5775 16.8444 11.0562C16.3231 10.5348 15.4804 10.5348 14.9591 11.0562L12.2923 13.7229C11.771 14.2442 11.771 15.0869 12.2923 15.6082C12.5523 15.8682 12.8937 15.9989 13.235 15.9989Z" fill="white"/>
<path d="M61.2359 39.6633C61.2359 38.49 60.7785 37.3873 59.9492 36.558L59.2065 35.8153C60.4718 34.6953 61.2345 33.0752 61.2345 31.3325C61.2345 28.0245 58.5425 25.3324 55.2344 25.3324C54.9917 25.3324 54.7517 25.3564 54.5144 25.3858C54.5437 25.1471 54.5677 24.9098 54.5677 24.6658C54.5677 21.3577 51.8757 18.6657 48.5676 18.6657C48.325 18.6657 48.085 18.6897 47.8476 18.719C47.877 18.4803 47.901 18.243 47.901 17.999C47.901 14.6909 45.2089 11.9989 41.9009 11.9989C41.6582 11.9989 41.4182 12.0229 41.1808 12.0522C41.2102 11.8136 41.2342 11.5762 41.2342 11.3322C41.2342 8.02416 38.5421 5.33211 35.2341 5.33211C33.4901 5.33211 31.8714 6.09612 30.7513 7.36015L29.6927 6.30146L24.6752 1.28404C22.9619 -0.429317 20.1752 -0.429317 18.4645 1.28404L2.04819 17.7003C0.337493 19.4137 0.337493 22.1991 2.04819 23.9124L7.06561 28.9298L13.6124 35.4766C11.8044 36.5113 10.5683 38.438 10.5683 40.666C10.5683 42.7501 11.639 44.5874 13.2577 45.6635C13.339 45.7715 13.4337 45.8781 13.5604 45.9861L27.902 60.273V62.6677H25.2352V80.0014H49.2356H59.9025V62.6677H57.2358V58.6277C59.7865 56.4663 61.2359 53.3582 61.2359 49.9995C61.2359 47.6795 60.5118 45.4261 59.1878 43.5301L59.9492 42.7687C60.7785 41.9394 61.2359 40.8367 61.2359 39.6633ZM58.5691 31.3325C58.5691 32.3566 58.0971 33.3046 57.3198 33.9286L52.6384 29.2472C53.2624 28.4698 54.2117 27.9978 55.2344 27.9978C57.0731 27.9992 58.5691 29.4938 58.5691 31.3325ZM51.9024 24.6658C51.9024 25.6898 51.4304 26.6378 50.653 27.2618L45.9716 22.5804C46.5956 21.8031 47.545 21.331 48.5676 21.331C50.4063 21.3324 51.9024 22.8271 51.9024 24.6658ZM45.2356 17.999C45.2356 19.023 44.7636 19.971 43.9862 20.595L39.3048 15.9136C39.9288 15.1363 40.8782 14.6643 41.9009 14.6643C43.7396 14.6656 45.2356 16.1603 45.2356 17.999ZM35.2354 7.99882C37.0741 7.99882 38.5688 9.49351 38.5688 11.3322C38.5688 12.3562 38.0968 13.3042 37.3194 13.9283L32.638 9.24684C33.2621 8.47083 34.2114 7.99882 35.2354 7.99882ZM3.93355 22.0284C3.26154 21.355 3.26154 20.2604 3.93355 19.587L20.3498 3.17074C20.5165 3.00407 20.7112 2.87874 20.9178 2.79474C21.0112 2.75607 21.1165 2.7574 21.2152 2.73607C21.4525 2.6854 21.6872 2.6854 21.9245 2.73607C22.0232 2.7574 22.1285 2.75607 22.2219 2.79474C22.4285 2.87874 22.6219 3.00407 22.7899 3.17074L25.9219 6.30279L7.06561 25.1591L3.93355 22.0284ZM27.8073 8.18816L29.378 9.75885L36.0448 16.4256L36.8088 17.1896L42.7115 23.0924L43.4756 23.8564L49.3783 29.7592L50.1423 30.5232L56.8091 37.19L58.0625 38.4433C58.7358 39.1167 58.7358 40.21 58.0625 40.8834L57.4798 41.4674L41.6475 57.301C40.9768 57.973 39.8795 57.9757 39.2061 57.301L28.5726 46.6661H29.9007C33.2087 46.6661 35.9008 43.9741 35.9008 40.666C35.9008 37.358 33.2087 34.6659 29.9007 34.6659H16.5711L8.94964 27.0445L27.8073 8.18816ZM15.8484 37.4153L16.4018 37.3526C16.4564 37.3446 16.5111 37.3326 16.5671 37.3326H29.9007C31.7394 37.3326 33.234 38.8273 33.234 40.666C33.234 42.5047 31.7394 43.9994 29.9007 43.9994H25.9059H22.1352H16.5671C14.7284 43.9994 13.2337 42.5047 13.2337 40.666C13.235 39.0753 14.3564 37.746 15.8484 37.4153ZM27.902 77.3333V65.3331H39.1368C43.2342 65.3331 46.5689 68.6678 46.5689 72.7652V77.3333H27.902ZM57.2358 77.3333H49.2356V72.7652C49.2356 69.8239 47.9636 67.1811 45.9503 65.3331H57.2358V77.3333ZM57.2691 45.4501C58.1145 46.8115 58.5691 48.3862 58.5691 49.9995C58.5691 52.7396 57.3051 55.2609 55.0998 56.921L54.5691 57.321V62.6664H39.1355H30.5673V59.0423L30.0967 58.6437C30.0367 58.5917 29.9727 58.5437 29.8567 58.457L18.0205 46.6648H24.8006L37.3194 59.185C38.1768 60.041 39.3008 60.469 40.4248 60.469C41.5502 60.469 42.6755 60.041 43.5316 59.185L57.2691 45.4501Z" fill="white"/>
</svg>
